<svg id="Layer_1" data-name="Layer 1" xmlns="http://www.w3.org/2000/svg" viewBox="0 0 546.48 546.48"><defs><style>.cls-1{fill:#fded19;}</style></defs><circle class="cls-1" cx="273.24" cy="273.24" r="273.24"/><path d="M313.42,565.49v73.39c-12.38-11.35-24.68-22.61-37.29-34.15l-36.29,36.34V565.49c-8.13,0-15.84-.1-23.53,0-12.42.2-24.18-2.22-34.75-8.9a49.91,49.91,0,0,1-22.15-30.52,55.55,55.55,0,0,1-1.55-13.8q-.12-152.62,0-305.23c0-13.09,4.68-24.72,13.08-35,8.69-10.59,19.81-16.81,32.92-19.84a39.71,39.71,0,0,1,8.76-.95q114.39-.08,228.77,0c5.91,0,7.79,1.92,8.28,6.86s-3.37,7.42-8.16,7.42c-74.88-.07-149.77,0-224.65-.12-20.74,0-37.64,11.92-43.32,31.69-5.22,18.19,3.13,39.06,20.73,48.49A46.25,46.25,0,0,0,216.71,251c75-.1,150,0,225-.16,5.91,0,9.45,3.62,9.44,9.29q-.18,146.63-.12,293.25a19.24,19.24,0,0,1-.92,6.47c-1.24,3.42-3.23,5.74-8.29,5.73q-61.87-.1-123.76,0Zm122.45-14.32V265.33H216.52V551.17Zm-233.82-1.5V267.41c0-.5.19-1.12,0-1.47-.68-1.07-1.31-2.51-2.33-3-3.17-1.41-6.8-1.93-9.72-3.69-6.17-3.71-12-8-17.92-12v3.43q0,129.35,0,258.7a72.38,72.38,0,0,0,.77,11C175,534.44,187.77,547.55,202.05,549.67Zm52,15.93v40.27a32.21,32.21,0,0,0,3.54-2.57c4.54-4.46,9-9,13.52-13.48s8.18-4.49,12.62-.11,9,9,13.53,13.48a16.66,16.66,0,0,0,2.1,1.46v-39Z" transform="translate(-43.2 -109.44)"/><path d="M328.53,214.19H215.71c-6.44,0-10.2-4.82-7.47-10.18.95-1.87,3.86-2.8,6-4,.57-.32,1.48-.05,2.23-.05q112.07,0,224.15,0c3.15,0,5.7.6,7.82,3.5,3.13,4.3-.72,10.76-6.3,10.74-6.25,0-12.5,0-18.75,0Z" transform="translate(-43.2 -109.44)"/></svg>